<?xml version="1.0" encoding="UTF-8" standalone="no"?>
<!-- Created with Inkscape (http://www.inkscape.org/) -->

<svg
   xmlns:dc="http://purl.org/dc/elements/1.1/"
   xmlns:cc="http://creativecommons.org/ns#"
   xmlns:rdf="http://www.w3.org/1999/02/22-rdf-syntax-ns#"
   xmlns:svg="http://www.w3.org/2000/svg"
   xmlns="http://www.w3.org/2000/svg"
   xmlns:sodipodi="http://sodipodi.sourceforge.net/DTD/sodipodi-0.dtd"
   xmlns:inkscape="http://www.inkscape.org/namespaces/inkscape"
   width="210mm"
   height="297mm"
   viewBox="0 0 210 297"
   version="1.1"
   id="svg8"
   inkscape:version="0.92.2 (5c3e80d, 2017-08-06)"
   sodipodi:docname="owl_gaven.svg"
   fill="#38b8b7">
  <defs
     id="defs2">
    <inkscape:path-effect
       effect="bspline"
       id="path-effect3711"
       is_visible="true"
       weight="33.333333"
       steps="2"
       helper_size="0"
       apply_no_weight="true"
       apply_with_weight="true"
       only_selected="false" />
  </defs>
  <sodipodi:namedview
     id="base"
     pagecolor="#38b8b7"
     bordercolor="#38b8b7"
     borderopacity="1.0"
     inkscape:pageopacity="0.0"
     inkscape:pageshadow="2"
     inkscape:zoom="0.35"
     inkscape:cx="-684.89461"
     inkscape:cy="538.78845"
     inkscape:document-units="mm"
     inkscape:current-layer="layer1"
     showgrid="false"
     inkscape:window-width="1920"
     inkscape:window-height="1027"
     inkscape:window-x="-8"
     inkscape:window-y="-8"
     inkscape:window-maximized="1" />
  <metadata
     id="metadata5">
    <rdf:RDF>
      <cc:Work
         rdf:about="">
        <dc:format>image/svg+xml</dc:format>
        <dc:type
           rdf:resource="http://purl.org/dc/dcmitype/StillImage" />
        <dc:title></dc:title>
      </cc:Work>
    </rdf:RDF>
  </metadata>
  <g
     inkscape:label="Layer 1"
     inkscape:groupmode="layer"
     id="layer1">
    <path
       style="fill:none;stroke:#38b8b7;stroke-width:0.75595242"
       d="m 104.89743,161.14716 c -8.96422,-2.86564 -15.30427,-8.46764 -19.7093,-17.41495 -2.269009,-4.60872 -2.411334,-5.38954 -2.411334,-13.22917 0,-7.77099 -2.783033,-12.97904 2.372337,-13.33833 26.042397,-1.81495 40.051197,-21.27286 58.285897,-0.82137 4.15724,4.66263 2.84176,5.96787 2.84176,14.12049 0,7.88372 -0.14025,8.65545 -2.41133,13.26838 -1.32623,2.69378 -3.6139,6.30261 -5.08372,8.01961 -7.83387,9.1514 -22.19286,13.1328 -33.88431,9.39534 z"
       id="path3774"
       inkscape:connector-curvature="0"
       sodipodi:nodetypes="ssssssccs" />
    <path
       style="fill:none;stroke:#38b8b7;stroke-width:0.75595242"
       d="m 107.06835,160.66555 c -8.355657,-1.96157 -16.57992,-8.79678 -20.9304,-17.39536 -2.307249,-4.56019 -2.438993,-5.2691 -2.441176,-13.13581 -0.0021,-7.50203 -0.467537,-5.80396 1.404141,-9.75538 3.001521,-6.33672 13.603744,-0.67585 19.681075,-3.66771 4.7483,-2.33758 8.53958,-8.08289 16.43861,-8.08289 7.88109,0 3.01192,-4.9416 7.70003,-2.63365 6.08916,2.99768 10.64121,4.32608 14.00429,10.97772 2.32832,4.60508 2.44936,5.26216 2.43027,13.194 -0.0189,7.86754 -0.15907,8.6229 -2.43718,13.1358 -6.85334,13.57641 -21.58582,20.71188 -35.84966,17.36328 z"
       id="path3780"
       inkscape:connector-curvature="0"
       sodipodi:nodetypes="cccsssscccc" />
    <path
       style="fill:none;stroke:#38b8b7;stroke-width:0.60030508"
       d="m 108.60402,154.41599 c -6.63527,-1.55769 -13.16618,-6.98557 -16.62092,-13.81373 -1.83221,-3.62127 -1.93682,-4.18422 -1.93856,-10.4312 -0.002,-5.9574 0.15933,-6.9436 1.64564,-10.08144 2.38353,-5.03201 9.1442,-3.24459 13.97024,-5.62044 3.77065,-1.85629 3.00421,-3.56524 9.27687,-3.56524 6.25841,0 6.44792,-5.23698 10.17076,-3.40423 4.83542,2.38047 9.2992,6.93732 11.96982,12.21942 1.84894,3.6569 1.94505,4.1787 1.9299,10.4774 -0.015,6.24766 -0.12633,6.84749 -1.93538,10.4312 -5.44227,10.78109 -17.1414,16.44739 -28.46837,13.78826 z"
       id="path3780-9"
       inkscape:connector-curvature="0"
       sodipodi:nodetypes="cccscssccsc" />
    <path
       style="fill:none;stroke:#38b8b7;stroke-width:0.75595242"
       d="m 107.65733,153.52023 c -6.60994,-2.17218 -12.35227,-7.48406 -15.43684,-14.27966 -2.02848,-4.46891 -2.02441,-14.07038 0.008,-18.54797 1.81122,-3.99058 8.69168,-5.47233 12.75084,-7.42344 4.24557,-2.0407 12.7839,-6.29044 17.71645,-4.65211 4.95358,1.64532 10.92686,5.9851 13.60773,11.28374 1.7357,3.43056 2.04843,5.00295 2.04843,10.29954 0,5.16787 -0.32719,6.89657 -1.88847,9.97761 -2.73038,5.38814 -5.75708,8.50649 -10.93532,11.26647 -5.40552,2.8811 -12.80479,3.7406 -17.87067,2.07582 z"
       id="path3797"
       inkscape:connector-curvature="0"
       sodipodi:nodetypes="ccccscssccc" />
    <path
       style="fill:none;stroke:#38b8b7;stroke-width:0.75595242"
       d="m 108.02276,152.56211 c -6.19462,-2.21363 -11.37262,-6.72011 -14.33922,-12.47958 -2.5012,-4.85591 -2.91116,-13.7614 -0.84818,-18.4251 1.93446,-4.37317 7.24732,-4.94306 11.72042,-7.57278 3.04715,-1.79141 4.09782,-2.69364 10.1152,-2.69364 6.01738,0 7.06806,-4.04226 10.11521,-2.25085 4.4719,2.62902 9.51855,8.14379 11.45166,12.51391 1.25318,2.83304 1.47215,4.58223 1.1995,9.5822 -0.36077,6.61596 -1.3976,9.30375 -5.30627,13.75548 -3.26943,3.72368 -7.29771,6.14487 -12.46122,7.4898 -5.20666,1.35615 -8.02303,1.37562 -11.6471,0.0806 z"
       id="path3799"
       inkscape:connector-curvature="0"
       sodipodi:nodetypes="ccsssscssccc" />
    <rect
       style="opacity:1;vector-effect:none;fill:none;fill-opacity:1;fill-rule:evenodd;stroke:#38b8b7;stroke-width:0.75595242;stroke-linecap:butt;stroke-linejoin:miter;stroke-miterlimit:4;stroke-dasharray:none;stroke-dashoffset:0;stroke-opacity:1"
       id="rect3739"
       width="147.41072"
       height="97.51786"
       x="33.261906"
       y="91.380951" />
    <path
       style="opacity:1;vector-effect:none;fill:#38b8b7;fill-opacity:1;stroke:none;stroke-width:0.25481671;stroke-linecap:butt;stroke-linejoin:miter;stroke-miterlimit:4;stroke-dasharray:none;stroke-dashoffset:0;stroke-opacity:1"
       d="m 8.5969026,79.512496 75.5952344,37.863354 -0.302384,9.98843 z"
       id="path3747"
       inkscape:connector-curvature="0"
       sodipodi:nodetypes="cccc" />
    <path
       style="opacity:1;vector-effect:none;fill:#38b8b7;fill-opacity:1;stroke:none;stroke-width:0.30938739;stroke-linecap:butt;stroke-linejoin:miter;stroke-miterlimit:4;stroke-dasharray:none;stroke-dashoffset:0;stroke-opacity:1"
       d="M 203.3512,81.780355 84.192137,117.37585 83.889753,127.36428 Z"
       id="path3747-2"
       inkscape:connector-curvature="0"
       sodipodi:nodetypes="cccc" />
    <circle
       style="fill:none;stroke:none;stroke-width:0.26458332"
       id="path3764"
       cx="80.130951"
       cy="73.238091"
       r="27.970238" />
    <circle
       style="fill:#38b8b7;stroke:none;stroke-width:0.26458332"
       id="path3801"
       cx="104.6994"
       cy="130.3125"
       r="7.1815472" />
    <path
       style="fill:none;stroke:#38b8b7;stroke-width:0.65502149"
       d="m 69.735233,151.50121 c 7.79109,-2.47547 8.482234,-8.73215 12.310784,-16.46126 1.97206,-3.98122 1.339807,0.069 1.339807,-6.70327 0,-6.71294 1.47388,-9.32202 -3.00681,-9.63239 -22.63427,-1.56784 -28.289669,-23.573656 -44.138023,-5.90671 -3.613197,4.0278 -2.469863,5.15533 -2.469863,12.19794 0,6.81032 0.121895,7.47698 2.095763,11.46184 1.152668,2.32702 3.140954,5.44449 4.418421,6.92772 6.808655,7.9054 19.288511,11.34472 29.449921,8.11613 z"
       id="path3774-6"
       inkscape:connector-curvature="0"
       sodipodi:nodetypes="ssssssccs" />
    <path
       style="fill:none;stroke:#38b8b7;stroke-width:0.65502149"
       d="m 67.848423,151.08517 c 7.26216,-1.69449 14.41013,-7.59907 18.19127,-15.02692 2.0053,-3.9393 2.1198,-4.55169 2.1217,-11.34732 0.002,-6.48061 -7.153174,-2.84038 -8.779904,-6.2538 -2.60872,-5.47395 -4.263916,-2.75719 -9.545916,-5.34169 -4.1269,-2.01932 -7.42202,-6.98238 -14.28732,-6.98238 -6.849703,0 -2.617763,-4.26879 -6.692347,-2.27507 -5.292273,2.58953 -9.248603,3.73707 -12.171571,9.48306 -2.023616,3.97809 -2.128807,4.5457 -2.112216,11.3976 0.01643,6.79634 0.138253,7.44886 2.118231,11.34731 5.956454,11.72794 18.760913,17.89189 31.158073,14.99921 z"
       id="path3780-97"
       inkscape:connector-curvature="0"
       sodipodi:nodetypes="cccsssscccc" />
    <path
       style="fill:none;stroke:#38b8b7;stroke-width:0.52015537"
       d="m 66.513723,145.68651 c 5.76692,-1.3456 11.44314,-6.03446 14.44577,-11.93294 1.59243,-3.12822 1.68335,-3.61453 1.68486,-9.01096 0.002,-5.14628 -2.028361,-3.82484 -3.320161,-6.53546 -2.0716,-4.34688 -6.530099,-3.65326 -10.724569,-5.70563 -3.27719,-1.60355 -2.044096,-3.4578 -7.495856,-3.4578 -5.43938,0 -5.698584,-5.46889 -8.934228,-3.88568 -4.202607,2.05636 -8.082219,5.99278 -10.403339,10.55571 -1.606973,3.159 -1.690505,3.60975 -1.677337,9.05086 0.01304,5.39702 0.109797,5.91518 1.682099,9.01096 4.730049,9.31321 14.898131,14.20802 24.742761,11.91094 z"
       id="path3780-9-0"
       inkscape:connector-curvature="0"
       sodipodi:nodetypes="cccscssccsc" />
    <path
       style="fill:none;stroke:#38b8b7;stroke-width:0.65502149"
       d="m 67.336523,144.91271 c 5.7449,-1.87643 10.73574,-6.46508 13.41664,-12.33543 1.76302,-3.86046 1.003528,-9.41432 -0.762952,-13.28227 -1.57419,-3.44725 -6.798258,-7.46759 -10.326208,-9.15305 -3.68996,-1.76285 -11.1109,-5.43397 -15.39792,-4.01871 -4.305326,1.42131 -9.496884,5.17021 -11.826921,9.74742 -1.508543,2.96348 -1.780347,4.32179 -1.780347,8.89723 0,4.46424 0.284371,5.95757 1.641329,8.61912 2.37306,4.65453 5.003651,7.3483 9.504232,9.7325 4.698107,2.48883 11.129047,3.23131 15.531967,1.79319 z"
       id="path3797-6"
       inkscape:connector-curvature="0"
       sodipodi:nodetypes="ccccscssccc" />
    <path
       style="fill:none;stroke:#38b8b7;stroke-width:0.65502149"
       d="m 67.018913,144.08504 c 5.38394,-1.91223 9.8843,-5.80514 12.46267,-10.78044 2.17387,-4.19476 2.53018,-11.88774 0.73718,-15.91646 -1.6813,-3.77775 -6.29888,-4.27004 -10.18659,-6.54172 -2.64837,-1.5475 -3.56154,-2.32689 -8.79144,-2.32689 -5.2299,0 -6.14307,-3.49189 -8.791455,-1.94439 -3.886669,2.27107 -8.272864,7.03499 -9.95299,10.8101 -1.089179,2.44731 -1.279493,3.95834 -1.042524,8.27755 0.313557,5.71517 1.214698,8.03701 4.611847,11.88262 2.841565,3.21669 6.34267,5.30823 10.830432,6.47004 4.52528,1.17151 6.97308,1.18833 10.12287,0.0696 z"
       id="path3799-1"
       inkscape:connector-curvature="0"
       sodipodi:nodetypes="ccsssscssccc" />
    <ellipse
       style="fill:#38b8b7;stroke:none;stroke-width:0.22925749"
       id="path3801-1"
       cx="-69.907341"
       cy="124.8648"
       rx="6.2417097"
       ry="6.2037554"
       transform="scale(-1,1)" />
    <path
       style="opacity:1;vector-effect:none;fill:none;fill-opacity:1;stroke:#38b8b7;stroke-width:0.26458332;stroke-linecap:butt;stroke-linejoin:miter;stroke-miterlimit:4;stroke-dasharray:none;stroke-dashoffset:0;stroke-opacity:1"
       d="m 77.107142,146.37649 1.417409,18.23735 9.260418,-16.81995 z"
       id="path3833"
       inkscape:connector-curvature="0"
       sodipodi:nodetypes="cccc" />
    <path
       style="opacity:1;vector-effect:none;fill:none;fill-opacity:1;stroke:#38b8b7;stroke-width:0.23014951;stroke-linecap:butt;stroke-linejoin:miter;stroke-miterlimit:4;stroke-dasharray:none;stroke-dashoffset:0;stroke-opacity:1"
       d="m 78.382862,146.5759 1.248065,15.67164 8.154042,-14.45365 z"
       id="path3833-6"
       inkscape:connector-curvature="0"
       sodipodi:nodetypes="cccc" />
    <path
       style="opacity:1;vector-effect:none;fill:none;fill-opacity:1;stroke:#38b8b7;stroke-width:0.26458332;stroke-linecap:butt;stroke-linejoin:miter;stroke-miterlimit:4;stroke-dasharray:none;stroke-dashoffset:0;stroke-opacity:1"
       d="m 77.311055,147.21922 1.417409,18.23735 9.260418,-16.81995 z"
       id="path3833-4"
       inkscape:connector-curvature="0"
       sodipodi:nodetypes="cccc" />
    <path
       style="opacity:1;vector-effect:none;fill:none;fill-opacity:1;stroke:#38b8b7;stroke-width:0.26458332;stroke-linecap:butt;stroke-linejoin:miter;stroke-miterlimit:4;stroke-dasharray:none;stroke-dashoffset:0;stroke-opacity:1"
       d="m 75.515668,144.76237 1.417409,18.23735 9.260418,-16.81995 z"
       id="path3833-0"
       inkscape:connector-curvature="0"
       sodipodi:nodetypes="cccc" />
  </g>
</svg>
